<?xml version="1.0" encoding="iso-8859-1"?>
<!-- Uploaded to: SVG Repo, www.svgrepo.com, Generator: SVG Repo Mixer Tools -->
<svg fill="#000000" height="800px" width="800px" version="1.1" id="Layer_1" xmlns="http://www.w3.org/2000/svg" xmlns:xlink="http://www.w3.org/1999/xlink" 
	 viewBox="0 0 512 512" xml:space="preserve">
<g>
	<g>
		<path d="M437.428,104.815H74.571c-4.543,0-8.226,3.682-8.226,8.226v239.547c0,4.544,3.683,8.226,8.226,8.226h362.857
			c4.544,0,8.226-3.683,8.226-8.227V113.041C445.654,108.497,441.971,104.815,437.428,104.815z M429.202,344.362H82.797V121.267
			h346.405V344.362z"/>
	</g>
</g>
<g>
	<g>
		<path d="M475.816,66.427H36.183c-4.543,0-8.226,3.682-8.226,8.226v316.322c0,4.544,3.683,8.226,8.226,8.226h439.633
			c4.544,0,8.226-3.683,8.226-8.227V74.653C484.042,70.109,480.359,66.427,475.816,66.427z M467.59,382.75H44.409V82.879H467.59
			V382.75z"/>
	</g>
</g>
<g>
	<g>
		<path d="M486.972,382.75H25.028C11.228,382.75,0,393.976,0,407.777v12.768c0,13.801,11.228,25.028,25.028,25.028h461.945
			c13.801,0,25.028-11.227,25.028-25.028v-12.768C512,393.976,500.773,382.75,486.972,382.75z M495.548,420.545
			c0,4.728-3.846,8.576-8.576,8.576H25.028c-4.728,0-8.576-3.846-8.576-8.576v-12.768c0-4.728,3.846-8.576,8.576-8.576h461.945
			c4.728,0,8.576,3.846,8.576,8.576V420.545z"/>
	</g>
</g>
</svg>