<svg width="40" height="38" viewBox="0 0 31 24" fill="none" xmlns="http://www.w3.org/2000/svg">
<path d="M9.29744 19.2C7.59291 19.2 6.21379 20.28 6.21379 21.6C6.21379 22.92 7.59291 24 9.29744 24C11.002 24 12.3966 22.92 12.3966 21.6C12.3966 20.28 11.002 19.2 9.29744 19.2ZM24.7932 19.2C23.0886 19.2 21.7095 20.28 21.7095 21.6C21.7095 22.92 23.0886 24 24.7932 24C26.4977 24 27.8923 22.92 27.8923 21.6C27.8923 20.28 26.4977 19.2 24.7932 19.2ZM22.5463 13.2C23.7085 13.2 24.7312 12.708 25.258 11.964L30.8055 4.176C30.9361 3.99411 31.0031 3.78897 30.9999 3.58087C30.9967 3.37277 30.9233 3.16893 30.7871 2.98951C30.651 2.8101 30.4566 2.66134 30.2234 2.55794C29.9902 2.45455 29.7261 2.4001 29.4574 2.4H6.5237L5.06711 0H0V2.4H3.09915L8.67761 11.508L6.58569 14.436C5.4545 16.044 6.94209 18 9.29744 18H27.8923V15.6H9.29744L11.002 13.2H22.5463ZM7.9958 4.8H26.8231L22.5463 10.8H11.6683L7.9958 4.8Z" fill="#F76524" fill-opacity="0.97"/>
</svg>
    