<svg width="10" height="11" viewBox="0 0 10 11" fill="#FFFFFF" xmlns="http://www.w3.org/2000/svg">
    <path fill-rule="evenodd" clip-rule="evenodd" d="M0.292893 0.792893C0.683417 0.402369 1.31658 0.402369 1.70711 0.792893L5 4.08579L8.29289 0.792893C8.68342 0.402369 9.31658 0.402369 9.70711 0.792893C10.0976 1.18342 10.0976 1.81658 9.70711 2.20711L6.41421 5.5L9.70711 8.79289C10.0976 9.18342 10.0976 9.81658 9.70711 10.2071C9.31658 10.5976 8.68342 10.5976 8.29289 10.2071L5 6.91421L1.70711 10.2071C1.31658 10.5976 0.683417 10.5976 0.292893 10.2071C-0.0976311 9.81658 -0.0976311 9.18342 0.292893 8.79289L3.58579 5.5L0.292893 2.20711C-0.0976311 1.81658 -0.0976311 1.18342 0.292893 0.792893Z" />
</svg>