<svg width="26" height="18" viewBox="0 0 26 18" fill="none" xmlns="http://www.w3.org/2000/svg">
    <g clip-path="url(#clip0_8_11)">
    <path d="M0 0H26V18H0V0Z" fill="#012169"/>
    <path d="M26 0H23.0781L15.1543 5.45609V0H10.8457V5.45609L2.9219 0H0V1.98867L5.74476 6.017H0V11.983H5.74476L0 15.9603V18H2.9219L10.8457 12.4929V18H15.1543V12.4929L23.0781 18H26V15.9603L20.2552 11.983H26V6.017H20.2552L26 1.98867V0Z" fill="white"/>
    <path d="M14.3684 6.10352e-05H11.6316V6.92314H-2.09808e-05V11.077H11.6316V18.0001H14.3684V11.077H26V6.92314H14.3684V6.10352e-05Z" fill="#C8102E"/>
    <path d="M26 0H24.0686L15.4019 6.017H17.3333L26 0Z" fill="#C8102E"/>
    <path d="M8.66667 6.017L0 0V1.32578L6.73524 6.017H8.66667Z" fill="#C8102E"/>
    <path d="M17.3333 11.983L26 18V16.6232L19.2648 11.983H17.3333Z" fill="#C8102E"/>
    <path d="M0 18H1.93143L10.5981 11.983H8.66667L0 18Z" fill="#C8102E"/>
    </g>
    <defs>
    <clipPath id="clip0_8_11">
    <rect width="26" height="18" fill="white"/>
    </clipPath>
    </defs>
    </svg>
    