<svg width="242" height="36" viewBox="0 0 242 36" fill="#F85C22" xmlns="http://www.w3.org/2000/svg">
    <path d="M89.9 13.6C89.9 13.5 90 13.4 90 13.3C90 13.2 90 13.1 89.9 13.1C89.9 13 89.8 13 89.7 12.9C89.6 12.9 89.6 12.8 89.5 12.8C89.4 12.8 89.3 12.8 89.2 12.8H88.6V14.5H89V13.9H89.2L89.7 14.5H90.2L89.6 13.8C89.7 13.8 89.8 13.7 89.9 13.6ZM89.5 13.5C89.4 13.6 89.4 13.6 89.3 13.6C89.2 13.6 89.2 13.6 89.1 13.6H89V13.1H89.1C89.2 13.1 89.2 13.1 89.2 13.1H89.3L89.4 13.2V13.3C89.5 13.4 89.5 13.4 89.5 13.5ZM90.5 12.5C90.2 12.2 89.8 12 89.3 12C88.8 12 88.4 12.2 88.1 12.5C87.8 12.8 87.6 13.2 87.6 13.7C87.6 14.2 87.8 14.6 88.1 14.9C88.4 15.2 88.8 15.4 89.3 15.4C89.8 15.4 90.2 15.2 90.5 14.9C90.8 14.6 91 14.2 91 13.7C91 13.3 90.8 12.8 90.5 12.5ZM90.2 14.7C89.9 15 89.6 15.1 89.3 15.1C88.9 15.1 88.6 15 88.4 14.7C88.1 14.4 88 14.1 88 13.7C88 13.3 88.1 13 88.4 12.8C88.7 12.5 89 12.4 89.3 12.4C89.7 12.4 90 12.5 90.2 12.8C90.5 13.1 90.6 13.4 90.6 13.7C90.6 14.1 90.5 14.4 90.2 14.7ZM74.8 24.9L70.8 13.6H63.7L70.6 30.7H78.7L85.6 13.6H78.6L74.8 24.9ZM16.3 16.6C16.7 16.4 17.1 16.2 17.4 16C18.9 14.9 20 13.1 20 11C20 7.7 17.4 5 14.1 5H14.5H0V30.7H11.9C12.1 30.7 12.3 30.7 12.6 30.7H15.8C19.7 30.6 22.2 27.4 22.2 23.4C22.2 20 19.5 17.3 16.3 16.6ZM6.9 9.7H10.3C10.7 9.7 11.1 9.8 11.5 9.9C12.3 10.2 12.8 10.9 13.1 11.6C13.1 11.8 13.2 12 13.2 12.2C13.2 12.7 13.1 13.1 13 13.5C12.8 13.9 12.6 14.2 12.2 14.5C12.1 14.6 12 14.6 11.8 14.7C11.3 14.9 10.9 15 10.4 15.1C10 15.1 9.8 15.1 8.7 15.1H6.9V9.7ZM13.4 25.3C12.8 25.7 12 26 11.2 26H6.9V19.6H10.6C10.9 19.6 11.1 19.6 11.2 19.6C11.9 19.6 12.4 19.7 12.8 19.8C12.9 19.8 13 19.9 13.1 19.9C14.1 20.4 14.8 21.5 14.8 22.7C14.8 23.8 14.3 24.7 13.4 25.3ZM36.8 13.6L30.8 21.3V5H24.1V30.7H30.8L33.7 27L36.4 30.7H44.1L37.6 22L44.1 13.6H36.8ZM61.5 14.2C60.1 13.2 56.8 12.7 53.8 12.7C52.6 12.7 51.4 12.8 50.2 13C48.7 13.2 47 13.7 46 14.1L47.9 18C49.2 17.2 50.4 16.8 52.1 16.6C53 16.5 54 16.4 54.8 16.6C55.4 16.7 55.9 16.9 56.3 17.2C56.9 17.6 57.1 18.2 57.1 19.1V19.2C54.4 19.3 51.8 19.4 49.5 20.1C47.2 20.8 44.8 22.8 44.8 25.5C44.8 28.5 47.4 31 50.5 31C50.6 31 51.3 31 51.3 31C53.3 30.9 55.5 30.2 57 29.2L58.1 30.7H63.5V18.8C63.5 16.7 62.9 15.3 61.5 14.2ZM57 26C57 26 55.6 27.5 53.8 27.5C53.7 27.5 53.6 27.5 53.5 27.5H53.3C52.2 27.3 51.5 26.4 51.5 25.2C51.5 24.1 52.3 23.2 53.3 23H53.4C54.3 22.8 57.1 22.5 57.1 22.5V26H57Z" />
    <path fill-rule="evenodd" clip-rule="evenodd" d="M107 36V0H108V36H107Z" />
    <path d="M132.766 31H129.133V16.8906H124.48V13.8672H137.418V16.8906H132.766V31Z" />
    <path d="M142.621 24.4258C142.621 25.7227 142.832 26.7031 143.254 27.3672C143.684 28.0312 144.379 28.3633 145.34 28.3633C146.293 28.3633 146.977 28.0352 147.391 27.3789C147.812 26.7148 148.023 25.7305 148.023 24.4258C148.023 23.1289 147.812 22.1562 147.391 21.5078C146.969 20.8594 146.277 20.5352 145.316 20.5352C144.363 20.5352 143.676 20.8594 143.254 21.5078C142.832 22.1484 142.621 23.1211 142.621 24.4258ZM151.68 24.4258C151.68 26.5586 151.117 28.2266 149.992 29.4297C148.867 30.6328 147.301 31.2344 145.293 31.2344C144.035 31.2344 142.926 30.9609 141.965 30.4141C141.004 29.8594 140.266 29.0664 139.75 28.0352C139.234 27.0039 138.977 25.8008 138.977 24.4258C138.977 22.2852 139.535 20.6211 140.652 19.4336C141.77 18.2461 143.34 17.6523 145.363 17.6523C146.621 17.6523 147.73 17.9258 148.691 18.4727C149.652 19.0195 150.391 19.8047 150.906 20.8281C151.422 21.8516 151.68 23.0508 151.68 24.4258Z" />
    <path d="M160.152 28.3867C160.777 28.3867 161.527 28.25 162.402 27.9766V30.6367C161.512 31.0352 160.418 31.2344 159.121 31.2344C157.691 31.2344 156.648 30.875 155.992 30.1562C155.344 29.4297 155.02 28.3438 155.02 26.8984V20.582H153.309V19.0703L155.277 17.875L156.309 15.1094H158.594V17.8984H162.262V20.582H158.594V26.8984C158.594 27.4062 158.734 27.7812 159.016 28.0234C159.305 28.2656 159.684 28.3867 160.152 28.3867Z" />
    <path d="M173.383 31L172.691 29.2188H172.598C171.996 29.9766 171.375 30.5039 170.734 30.8008C170.102 31.0898 169.273 31.2344 168.25 31.2344C166.992 31.2344 166 30.875 165.273 30.1562C164.555 29.4375 164.195 28.4141 164.195 27.0859C164.195 25.6953 164.68 24.6719 165.648 24.0156C166.625 23.3516 168.094 22.9844 170.055 22.9141L172.328 22.8438V22.2695C172.328 20.9414 171.648 20.2773 170.289 20.2773C169.242 20.2773 168.012 20.5938 166.598 21.2266L165.414 18.8125C166.922 18.0234 168.594 17.6289 170.43 17.6289C172.188 17.6289 173.535 18.0117 174.473 18.7773C175.41 19.543 175.879 20.707 175.879 22.2695V31H173.383ZM172.328 24.9297L170.945 24.9766C169.906 25.0078 169.133 25.1953 168.625 25.5391C168.117 25.8828 167.863 26.4062 167.863 27.1094C167.863 28.1172 168.441 28.6211 169.598 28.6211C170.426 28.6211 171.086 28.3828 171.578 27.9062C172.078 27.4297 172.328 26.7969 172.328 26.0078V24.9297Z" />
    <path d="M183.145 31H179.57V12.7656H183.145V31Z" />
    <path d="M208.621 31H204.004L196.551 18.0391H196.445C196.594 20.3281 196.668 21.9609 196.668 22.9375V31H193.422V13.8672H198.004L205.445 26.6992H205.527C205.41 24.4727 205.352 22.8984 205.352 21.9766V13.8672H208.621V31Z" />
    <path d="M223.434 31L222.191 26.9219H215.945L214.703 31H210.789L216.836 13.7969H221.277L227.348 31H223.434ZM221.324 23.875C220.176 20.1797 219.527 18.0898 219.379 17.6055C219.238 17.1211 219.137 16.7383 219.074 16.457C218.816 17.457 218.078 19.9297 216.859 23.875H221.324Z" />
    <path d="M236.793 16.6445C235.426 16.6445 234.367 17.1602 233.617 18.1914C232.867 19.2148 232.492 20.6445 232.492 22.4805C232.492 26.3008 233.926 28.2109 236.793 28.2109C237.996 28.2109 239.453 27.9102 241.164 27.3086V30.3555C239.758 30.9414 238.188 31.2344 236.453 31.2344C233.961 31.2344 232.055 30.4805 230.734 28.9727C229.414 27.457 228.754 25.2852 228.754 22.457C228.754 20.6758 229.078 19.1172 229.727 17.7812C230.375 16.4375 231.305 15.4102 232.516 14.6992C233.734 13.9805 235.16 13.6211 236.793 13.6211C238.457 13.6211 240.129 14.0234 241.809 14.8281L240.637 17.7812C239.996 17.4766 239.352 17.2109 238.703 16.9844C238.055 16.7578 237.418 16.6445 236.793 16.6445Z" />
    </svg>
    