<svg width="40" height="38" viewBox="0 0 40 38" fill="none" xmlns="http://www.w3.org/2000/svg">
<path d="M28.3333 30.4315H8.33333V11.0832H20V7.9165H8.33333C6.5 7.9165 5 9.3415 5 11.0832V30.0832C5 31.8248 6.5 33.2498 8.33333 33.2498H28.3333C30.1667 33.2498 31.6667 31.8248 31.6667 30.0832V18.9998H28.3333V30.4315Z" fill="black"/>
<path d="M31.6667 3.1665H28.3334V7.9165H23.3334C23.3501 7.93234 23.3334 11.0832 23.3334 11.0832H28.3334V15.8173C28.3501 15.8332 31.6667 15.8173 31.6667 15.8173V11.0832H36.6667V7.9165H31.6667V3.1665ZM11.6667 14.2498H25.0001V17.4165H11.6667V14.2498ZM11.6667 18.9998V22.1665H25.0001V18.9998H20.0001H11.6667ZM11.6667 23.7498H25.0001V26.9165H11.6667V23.7498Z" fill="black"/>
</svg>
