<svg width="22" height="22" viewBox="0 0 22 22" fill="#FFCB77" xmlns="http://www.w3.org/2000/svg">
    <path fill-rule="evenodd" clip-rule="evenodd" d="M11 2C6.02942 2 1.99998 6.02944 1.99998 11C1.99998 12.4882 2.36071 13.8914 2.99998 15.1277V15C2.99998 14.4477 3.4477 14 3.99998 14C4.55227 14 4.99998 14.4477 4.99998 15V18C4.99998 18.5523 4.55227 19 3.99998 19H3.8597C3.85897 19 3.85825 19 3.85753 19H0.999985C0.4477 19 -1.52588e-05 18.5523 -1.52588e-05 18C-1.52588e-05 17.4477 0.4477 17 0.999985 17H1.77911C0.65429 15.2746 -1.52588e-05 13.2131 -1.52588e-05 11C-1.52588e-05 4.92487 4.92485 0 11 0C17.0751 0 22 4.92487 22 11C22 17.0751 17.0751 22 11 22C10.4477 22 9.99998 21.5523 9.99998 21C9.99998 20.4477 10.4477 20 11 20C15.9705 20 20 15.9706 20 11C20 6.02944 15.9705 2 11 2Z" />
    <path fill-rule="evenodd" clip-rule="evenodd" d="M11 4C11.5523 4 12 4.44772 12 5V10.382L15.4472 12.1056C15.9412 12.3526 16.1414 12.9532 15.8944 13.4472C15.6474 13.9412 15.0467 14.1414 14.5528 13.8944L10.5528 11.8944C10.214 11.725 9.99998 11.3788 9.99998 11V5C9.99998 4.44772 10.4477 4 11 4Z" />
</svg>
    