<svg width="232" height="86" viewBox="0 0 232 86" fill="none" xmlns="http://www.w3.org/2000/svg">
<path d="M229.157 28.2895C229.157 27.9605 229.412 27.6316 229.412 27.3026C229.412 26.9737 229.412 26.6447 229.157 26.6447C229.157 26.3158 228.902 26.3158 228.647 25.9868C228.392 25.9868 228.392 25.6579 228.137 25.6579C227.882 25.6579 227.627 25.6579 227.373 25.6579H225.843V31.25H226.863V29.2763H227.373L228.647 31.25H229.922L228.392 28.9474C228.647 28.9474 228.902 28.6184 229.157 28.2895ZM228.137 27.9605C227.882 28.2895 227.882 28.2895 227.627 28.2895C227.373 28.2895 227.373 28.2895 227.118 28.2895H226.863V26.6447H227.118C227.373 26.6447 227.373 26.6447 227.373 26.6447H227.627L227.882 26.9737V27.3026C228.137 27.6316 228.137 27.6316 228.137 27.9605ZM230.686 24.6711C229.922 23.6842 228.902 23.0263 227.627 23.0263C226.353 23.0263 225.333 23.6842 224.569 24.6711C223.804 25.6579 223.294 26.9737 223.294 28.6184C223.294 30.2632 223.804 31.5789 224.569 32.5658C225.333 33.5526 226.353 34.2105 227.627 34.2105C228.902 34.2105 229.922 33.5526 230.686 32.5658C231.451 31.5789 231.961 30.2632 231.961 28.6184C231.961 27.3026 231.451 25.6579 230.686 24.6711ZM229.922 31.9079C229.157 32.8947 228.392 33.2237 227.627 33.2237C226.608 33.2237 225.843 32.8947 225.333 31.9079C224.569 30.9211 224.314 29.9342 224.314 28.6184C224.314 27.3026 224.569 26.3158 225.333 25.6579C226.098 24.6711 226.863 24.3421 227.627 24.3421C228.647 24.3421 229.412 24.6711 229.922 25.6579C230.686 26.6447 230.941 27.6316 230.941 28.6184C230.941 29.9342 230.686 30.9211 229.922 31.9079ZM190.667 65.4605L180.471 28.2895H162.373L179.961 84.5395H200.608L218.196 28.2895H200.353L190.667 65.4605ZM41.549 38.1579C42.5686 37.5 43.5882 36.8421 44.3529 36.1842C48.1765 32.5658 50.9804 26.6447 50.9804 19.7368C50.9804 8.88158 44.3529 0 35.9412 0H36.9608H0V84.5395H30.3333C30.8431 84.5395 31.3529 84.5395 32.1176 84.5395H40.2745C50.2157 84.2105 56.5882 73.6842 56.5882 60.5263C56.5882 49.3421 49.7059 40.4605 41.549 38.1579ZM17.5882 15.4605H26.2549C27.2745 15.4605 28.2941 15.7895 29.3137 16.1184C31.3529 17.1053 32.6275 19.4079 33.3922 21.7105C33.3922 22.3684 33.6471 23.0263 33.6471 23.6842C33.6471 25.3289 33.3922 26.6447 33.1373 27.9605C32.6274 29.2763 32.1176 30.2632 31.098 31.25C30.8431 31.5789 30.5882 31.5789 30.0784 31.9079C28.8039 32.5658 27.7843 32.8947 26.5098 33.2237C25.4902 33.2237 24.9804 33.2237 22.1765 33.2237H17.5882V15.4605ZM34.1569 66.7763C32.6274 68.0921 30.5882 69.0789 28.549 69.0789H17.5882V48.0263H27.0196C27.7843 48.0263 28.2941 48.0263 28.549 48.0263C30.3333 48.0263 31.6078 48.3553 32.6275 48.6842C32.8824 48.6842 33.1373 49.0132 33.3922 49.0132C35.9412 50.6579 37.7255 54.2763 37.7255 58.2237C37.7255 61.8421 36.451 64.8026 34.1569 66.7763ZM93.8039 28.2895L78.5098 53.6184V0H61.4314V84.5395H78.5098L85.902 72.3684L92.7843 84.5395H112.412L95.8431 55.9211L112.412 28.2895H93.8039ZM156.765 30.2632C153.196 26.9737 144.784 25.3289 137.137 25.3289C134.078 25.3289 131.02 25.6579 127.961 26.3158C124.137 26.9737 119.804 28.6184 117.255 29.9342L122.098 42.7632C125.412 40.1316 128.471 38.8158 132.804 38.1579C135.098 37.8289 137.647 37.5 139.686 38.1579C141.216 38.4868 142.49 39.1447 143.51 40.1316C145.039 41.4474 145.549 43.4211 145.549 46.3816V46.7105C138.667 47.0395 132.039 47.3684 126.176 49.6711C120.314 51.9737 114.196 58.5526 114.196 67.4342C114.196 77.3026 120.824 85.5263 128.725 85.5263C128.98 85.5263 130.765 85.5263 130.765 85.5263C135.863 85.1974 141.471 82.8947 145.294 79.6053L148.098 84.5395H161.863V45.3947C161.863 38.4868 160.333 33.8816 156.765 30.2632ZM145.294 69.0789C145.294 69.0789 141.725 74.0132 137.137 74.0132C136.882 74.0132 136.627 74.0132 136.373 74.0132H135.863C133.059 73.3553 131.275 70.3947 131.275 66.4474C131.275 62.829 133.314 59.8684 135.863 59.2105H136.118C138.412 58.5526 145.549 57.5658 145.549 57.5658V69.0789H145.294Z" fill="#F76524" fill-opacity="0.97"/>
</svg>
