<?xml version="1.0" encoding="utf-8"?>
<!-- Uploaded to: SVG Repo, www.svgrepo.com, Generator: SVG Repo Mixer Tools -->
<svg width="40px" height="38px" viewBox="0 0 1024 1024" fill="#000000" class="icon"  version="1.1" xmlns="http://www.w3.org/2000/svg"><path d="M200.02 671.99c-4.422 0-8-3.578-8-8V392.008c0-4.422 3.578-8 8-8s8 3.578 8 8v271.982c0 4.422-3.578 8-8 8z" fill="" /><path d="M504.002 671.99H200.02c-4.422 0-8-3.578-8-8a7.994 7.994 0 0 1 8-7.998h303.982a7.994 7.994 0 0 1 7.998 7.998c0 4.422-3.578 8-7.998 8zM232.018 607.994a7.996 7.996 0 0 1-5.656-13.654l95.994-95.996a8 8 0 1 1 11.312 11.312l-95.994 95.994a7.976 7.976 0 0 1-5.656 2.344z" fill="" /><path d="M376.01 559.996a7.976 7.976 0 0 1-5.656-2.344l-47.998-47.996a8 8 0 1 1 11.312-11.312l47.996 47.998a7.996 7.996 0 0 1-5.654 13.654z" fill="" /><path d="M376.01 559.996a7.996 7.996 0 0 1-5.656-13.654l127.992-127.992a8 8 0 0 1 11.31 11.312l-127.992 127.992a7.98 7.98 0 0 1-5.654 2.342z" fill="" /><path d="M504.002 464.002c-4.422 0-8-3.578-8-8v-31.998c0-4.422 3.578-8 8-8a7.994 7.994 0 0 1 7.998 8v31.998c0 4.422-3.578 8-7.998 8z" fill="" /><path d="M504.002 432.004h-31.998c-4.422 0-8-3.578-8-8 0-4.422 3.578-8 8-8h31.998a7.994 7.994 0 0 1 7.998 8c0 4.422-3.578 8-7.998 8zM751.986 639.992c-79.4 0-143.99-64.59-143.99-143.992s64.59-143.992 143.99-143.992S895.976 416.6 895.976 496s-64.59 143.992-143.99 143.992z m0-271.984c-70.574 0-127.992 57.418-127.992 127.992s57.418 127.992 127.992 127.992 127.992-57.418 127.992-127.992-57.418-127.992-127.992-127.992z" fill="" /><path d="M751.986 671.99c-79.4 0-143.99-64.59-143.99-143.99 0-4.422 3.578-8 7.998-8 4.422 0 8 3.578 8 8 0 70.572 57.418 127.992 127.992 127.992s127.992-57.42 127.992-127.992c0-4.422 3.578-8 8-8a7.994 7.994 0 0 1 7.998 8c0 79.4-64.59 143.99-143.99 143.99z" fill="" /><path d="M615.994 535.998a7.994 7.994 0 0 1-7.998-7.998v-32c0-4.42 3.578-8 7.998-8 4.422 0 8 3.578 8 8v32a7.994 7.994 0 0 1-8 7.998zM887.978 535.998c-4.422 0-8-3.578-8-7.998v-32c0-4.42 3.578-8 8-8a7.994 7.994 0 0 1 7.998 8v32a7.994 7.994 0 0 1-7.998 7.998zM751.986 559.996c-35.28 0-63.996-28.7-63.996-63.996 0-35.294 28.716-63.996 63.996-63.996s63.996 28.702 63.996 63.996c0 35.296-28.716 63.996-63.996 63.996z m0-111.992c-26.466 0-47.998 21.53-47.998 47.998S725.52 544 751.986 544s47.998-21.53 47.998-47.998-21.53-47.998-47.998-47.998z" fill="" /><path d="M805.67 520a8.022 8.022 0 0 1-7.67-5.718c-6-20.186-24.922-34.28-46.014-34.28s-40.014 14.092-46.014 34.28c-1.266 4.218-5.672 6.61-9.952 5.39a8.006 8.006 0 0 1-5.39-9.954c8.016-26.92 33.232-45.716 61.356-45.716s53.34 18.796 61.356 45.716a8.006 8.006 0 0 1-5.39 9.954 8.336 8.336 0 0 1-2.282 0.328zM711.91 463.924a7.976 7.976 0 0 1-5.656-2.344l-56.074-56.076a8 8 0 0 1 11.312-11.31l56.074 56.074a8 8 0 0 1-5.656 13.656zM751.986 639.992c-4.422 0-8-3.578-8-8v-79.994c0-4.422 3.578-8 8-8s8 3.578 8 8v79.994c0 4.422-3.578 8-8 8zM504.002 735.986H200.02c-4.422 0-8-3.578-8-8a7.994 7.994 0 0 1 8-7.998h303.982a7.994 7.994 0 0 1 7.998 7.998c0 4.422-3.578 8-7.998 8zM504.002 767.984H200.02c-4.422 0-8-3.578-8-8s3.578-8 8-8h303.982c4.42 0 7.998 3.578 7.998 8s-3.578 8-7.998 8zM280.016 799.982H200.02c-4.422 0-8-3.578-8-8a7.994 7.994 0 0 1 8-7.998h79.996a7.994 7.994 0 0 1 7.998 7.998c0 4.422-3.578 8-7.998 8zM919.976 735.986H615.994a7.994 7.994 0 0 1-7.998-8 7.994 7.994 0 0 1 7.998-7.998h303.982c4.422 0 8 3.578 8 7.998 0 4.422-3.578 8-8 8zM919.976 767.984H615.994c-4.42 0-7.998-3.578-7.998-8s3.578-8 7.998-8h303.982c4.422 0 8 3.578 8 8s-3.578 8-8 8zM695.99 799.982h-79.996a7.994 7.994 0 0 1-7.998-8 7.994 7.994 0 0 1 7.998-7.998h79.996a7.994 7.994 0 0 1 7.998 7.998c0 4.422-3.578 8-7.998 8zM1015.97 847.98c-4.422 0-8-3.578-8-8V136.024c0-4.422 3.578-8 8-8a7.994 7.994 0 0 1 7.998 8V839.98c0 4.422-3.578 8-7.998 8z" fill="" /><path d="M104.026 847.98c-4.422 0-8-3.578-8-8V136.024c0-4.422 3.578-8 8-8s8 3.578 8 8V839.98c0 4.422-3.578 8-8 8z" fill="" /><path d="M56.03 895.976c-4.422 0-8-3.578-8-8s3.578-8 8-8c22.052 0 39.996-17.936 39.996-39.996 0-4.422 3.578-8 8-8s8 3.578 8 8c0 30.874-25.124 55.996-55.996 55.996z" fill="" /><path d="M967.972 895.976c-4.422 0-8-3.578-8-8s3.578-8 8-8c22.062 0 39.998-17.936 39.998-39.996 0-4.422 3.578-8 8-8a7.994 7.994 0 0 1 7.998 8c0 30.874-25.122 55.996-55.996 55.996z" fill="" /><path d="M56.03 895.976c-30.874 0-55.998-25.124-55.998-55.996 0-4.422 3.578-8 8-8s8 3.578 8 8c0 22.06 17.944 39.996 39.998 39.996 4.42 0 7.998 3.578 7.998 8s-3.578 8-7.998 8z" fill="" /><path d="M8.032 847.98c-4.422 0-8-3.578-8-8V184.02c0-4.42 3.578-8 8-8s8 3.578 8 8v655.96c0 4.422-3.578 8-8 8z" fill="" /><path d="M72.028 847.98c-4.422 0-8-3.578-8-8V152.022c0-4.42 3.578-8 8-8s8 3.578 8 8V839.98c0 4.422-3.578 8-8 8z" fill="" /><path d="M40.03 847.98c-4.422 0-8-3.578-8-8V168.022c0-4.422 3.578-8 8-8s8 3.578 8 8V839.98c0 4.422-3.578 8-8 8z" fill="" /><path d="M56.03 863.978c-4.422 0-8-3.578-8-8a7.994 7.994 0 0 1 8-7.998 8.01 8.01 0 0 0 7.998-8c0-4.422 3.578-8 8-8s8 3.578 8 8c0 13.232-10.766 23.998-23.998 23.998z" fill="" /><path d="M56.03 863.978c-13.234 0-24-10.766-24-23.998 0-4.422 3.578-8 8-8s8 3.578 8 8c0 4.406 3.586 8 8 8a7.994 7.994 0 0 1 7.998 7.998c0 4.422-3.578 8-7.998 8z" fill="" /><path d="M967.972 895.976H56.03c-4.422 0-8-3.578-8-8s3.578-8 8-8h911.944c4.422 0 8 3.578 8 8s-3.58 8-8.002 8z" fill="" /><path d="M1015.97 144.022H104.026c-4.422 0-8-3.578-8-8 0-4.422 3.578-8 8-8h911.946a7.994 7.994 0 0 1 7.998 8 7.998 7.998 0 0 1-8 8z" fill="" /><path d="M951.974 304.012H200.02c-4.422 0-8-3.578-8-8V200.02c0-4.422 3.578-8 8-8h751.956a7.994 7.994 0 0 1 7.998 8v95.994a7.998 7.998 0 0 1-8 7.998z m-743.954-15.998h735.956v-79.996H208.02v79.996z" fill="" /><path d="M903.976 256.016H248.018c-4.422 0-8-3.578-8-8 0-4.42 3.578-8 8-8h655.958c4.422 0 8 3.578 8 8 0 4.422-3.578 8-8 8z" fill="" /></svg>