<?xml version="1.0" encoding="iso-8859-1"?>
<!-- Uploaded to: SVG Repo, www.svgrepo.com, Generator: SVG Repo Mixer Tools -->
<svg fill="#000000" height="40px" width="38px" version="1.1" id="Capa_1" xmlns="http://www.w3.org/2000/svg" xmlns:xlink="http://www.w3.org/1999/xlink" 
	 viewBox="0 0 349.759 349.759" xml:space="preserve">
<path d="M144.688,319.567c-47.77,0-90.209-23.273-116.573-59.072c-0.418-0.453-0.789-0.959-1.098-1.511
	C10.018,235.267,0,206.219,0,174.88s10.018-60.388,27.017-84.104c0.309-0.552,0.679-1.058,1.097-1.51
	c26.364-35.8,68.804-59.073,116.574-59.073c0,0,0,0,0,0c0.001,0-0.001,0,0,0c57.863,0,110.045,34.343,132.94,87.491
	c1.748,4.058-0.125,8.765-4.182,10.513c-4.06,1.747-8.765-0.125-10.512-4.183c-3.022-7.015-6.615-13.657-10.715-19.89
	c-15.818,4.941-32.546,8.766-49.79,11.409c3.017,16.021,4.79,33.382,5.196,51.347h11.59c4.418,0,8,3.582,8,8s-3.582,8-8,8h-11.59
	c-0.781,34.519-6.608,66.807-16.605,91.641C179.326,303.569,162.871,319.567,144.688,319.567z M106.386,247.849
	c9.192,34.635,24.254,55.718,38.302,55.718c14.05,0,29.115-21.089,38.307-55.736C157.783,245.214,131.579,245.217,106.386,247.849z
	 M47.559,259.211c16.648,19.148,38.855,33.348,64.08,40.056c-4.888-6.701-9.354-14.987-13.283-24.746
	c-3.047-7.569-5.708-15.832-7.955-24.638C75.628,252.102,61.256,255.226,47.559,259.211z M16.246,182.88
	c1.421,23.07,8.95,44.514,20.983,62.734c15.796-4.932,32.499-8.747,49.717-11.388c-3.017-16.02-4.79-33.382-5.196-51.347H16.246z
	 M97.751,182.88c0.418,17.976,2.236,34.537,5.064,49.263c27.537-3.02,56.217-3.022,83.749-0.021
	c2.826-14.723,4.641-31.27,5.06-49.241H97.751z M97.751,166.88h93.872c-0.418-17.976-2.236-34.537-5.063-49.263
	c-27.55,3.021-56.195,3.021-83.745,0C99.988,132.342,98.17,148.904,97.751,166.88z M16.246,166.88h65.503
	c0.407-17.965,2.18-35.327,5.196-51.347c-17.218-2.641-33.92-6.456-49.717-11.388C25.195,122.366,17.667,143.809,16.246,166.88z
	 M106.386,101.91c25.208,2.634,51.395,2.633,76.604,0.001c-9.191-34.642-24.253-55.719-38.302-55.719
	C130.64,46.192,115.578,67.275,106.386,101.91z M177.735,50.49c4.889,6.702,9.355,14.988,13.285,24.749
	c3.047,7.569,5.707,15.833,7.955,24.639c14.808-2.226,29.212-5.358,42.941-9.356C225.055,71.09,202.688,57.107,177.735,50.49z
	 M47.559,90.548c13.698,3.984,28.069,7.108,42.841,9.328c2.248-8.806,4.908-17.068,7.955-24.638
	c3.929-9.759,8.396-18.045,13.283-24.746C86.414,57.201,64.207,71.4,47.559,90.548z M209.124,319.011
	c-0.651,0-1.309-0.08-1.959-0.245c-0.652-0.165-1.272-0.409-1.85-0.723c-1.251-0.677-2.262-1.652-2.977-2.801
	c-0.544-0.87-0.926-1.854-1.102-2.905c-0.153-0.901-0.152-1.837,0.019-2.767c0.111-0.611,0.291-1.198,0.533-1.753l15.258-37.606
	c7.031-17.322,19.679-40.351,48.225-40.351h20.339c28.547,0,41.195,23.028,48.225,40.35l15.335,37.791
	c1.661,4.094-0.311,8.76-4.405,10.421c-0.04,0.017-0.081,0.032-0.122,0.048c-0.002,0.001-0.004,0.002-0.007,0.003
	c-0.004,0.002-0.009,0.004-0.014,0.005c-0.005,0.002-0.01,0.004-0.016,0.007c-0.002,0-0.003,0.001-0.005,0.002
	c-0.007,0.002-0.014,0.005-0.021,0.008c0,0,0,0,0,0c-0.023,0.009-0.046,0.018-0.069,0.025l0,0.001
	c-0.006,0.002-0.013,0.004-0.019,0.007c-0.002,0-0.004,0.001-0.007,0.002c-0.004,0.002-0.008,0.003-0.012,0.004
	c-0.004,0.002-0.009,0.004-0.014,0.006c-0.001,0-0.002,0-0.004,0.001c-0.961,0.345-1.952,0.487-2.917,0.468H209.345
	C209.271,319.01,209.197,319.011,209.124,319.011z M221.006,303.008h108.871l-10.867-26.781
	c-8.638-21.284-18.626-30.366-33.397-30.366h-20.341c-14.771,0-24.76,9.082-33.399,30.367L221.006,303.008z M275.44,217.1
	c-19.301,0-35.003-15.703-35.003-35.004s15.702-35.003,35.003-35.003c19.3,0,35.002,15.702,35.002,35.003
	S294.741,217.1,275.44,217.1z M275.44,163.093c-10.479,0-19.003,8.524-19.003,19.003s8.524,19.004,19.003,19.004
	c10.478,0,19.002-8.525,19.002-19.004S285.918,163.093,275.44,163.093z"/>
</svg>